<?xml version="1.0" standalone="no"?>
<!DOCTYPE svg PUBLIC "-//W3C//DTD SVG 20010904//EN"
 "http://www.w3.org/TR/2001/REC-SVG-20010904/DTD/svg10.dtd">
<svg version="1.0" xmlns="http://www.w3.org/2000/svg"
 width="320.000000pt" height="396.000000pt" viewBox="0 0 320.000000 396.000000"
 preserveAspectRatio="xMidYMid meet">

<g transform="translate(0.000000,396.000000) scale(0.100000,-0.100000)"
fill="#000000" stroke="none">
<path d="M1296 3795 c-106 -43 -169 -127 -182 -241 -6 -47 -4 -59 10 -70 16
-11 16 -17 -10 -80 -50 -126 -125 -231 -197 -279 l-28 -18 43 -44 c24 -24 71
-58 106 -75 52 -26 62 -35 62 -57 0 -14 10 -56 22 -94 18 -58 20 -74 10 -101
-7 -18 -12 -51 -12 -75 0 -42 18 -70 63 -96 21 -12 44 -150 54 -313 l6 -102
-38 -88 c-21 -48 -42 -91 -46 -96 -8 -9 -28 2 -77 41 l-23 19 20 44 c23 54 39
147 20 115 -7 -11 -15 -22 -19 -25 -4 -3 -15 -29 -24 -57 -18 -55 -24 -61 -44
-41 -7 7 -12 9 -12 5 0 -8 174 -153 191 -159 13 -4 -20 -99 -163 -461 l-58
-147 0 -156 c0 -151 -1 -156 -21 -161 -21 -6 -22 -9 -15 -122 21 -378 26 -517
20 -550 -8 -44 -29 -88 -56 -118 -34 -37 -17 -55 48 -51 65 3 86 22 105 92 12
44 26 66 42 66 6 0 8 -28 5 -75 -3 -41 -2 -72 2 -70 5 3 13 43 20 89 8 58 18
90 30 101 28 25 34 68 16 104 -15 28 -14 43 24 250 44 240 46 266 27 274 -10
4 -15 40 -20 137 l-6 132 90 226 c50 125 95 231 100 236 13 14 12 -7 -11 -221
-31 -280 -30 -294 19 -393 23 -45 60 -109 81 -142 33 -48 38 -62 28 -77 -9
-15 6 -41 104 -172 280 -376 260 -345 252 -395 -4 -26 -21 -67 -40 -96 -19
-27 -32 -53 -29 -58 4 -6 44 -7 116 -1 10 1 29 29 49 76 18 41 36 72 41 69 5
-3 9 -37 9 -76 0 -39 2 -69 4 -67 11 10 45 263 40 287 -4 15 -15 36 -24 47
-14 16 -195 343 -269 488 -8 15 -21 27 -30 27 -9 0 -29 21 -46 48 -16 26 -49
70 -72 99 l-42 52 43 138 c109 347 130 446 124 601 -3 94 -7 113 -31 156 l-27
49 0 208 c0 114 4 210 8 213 5 3 21 37 37 77 l28 72 -22 61 c-30 87 -28 140 7
175 15 15 34 30 42 34 12 5 10 11 -12 29 l-26 23 19 74 c10 40 24 122 30 181
28 258 -47 453 -197 509 -81 31 -209 29 -288 -4z m264 -329 c0 -33 -54 -185
-86 -245 -37 -67 -92 -141 -106 -141 -4 0 -8 7 -8 15 0 8 -15 21 -33 28 -84
35 -137 128 -148 256 -3 47 -5 89 -2 94 2 4 89 7 194 7 158 0 189 -2 189 -14z"/>
<path d="M1225 3410 c-4 -7 -3 -16 3 -22 14 -14 45 -2 40 15 -6 16 -34 21 -43
7z"/>
<path d="M1416 3411 c-8 -12 21 -34 34 -26 17 11 11 35 -9 35 -11 0 -22 -4
-25 -9z"/>
<path d="M1338 3232 c-30 -4 -38 -26 -12 -36 27 -11 51 -7 75 13 l23 18 -30 4
c-16 2 -41 3 -56 1z"/>
<path d="M2258 2499 c-30 -29 -31 -32 -25 -98 6 -77 47 -184 71 -189 20 -4 20
-3 -5 54 -32 77 -42 138 -29 179 13 40 35 55 79 55 33 0 42 14 15 24 -38 14
-76 6 -106 -25z"/>
<path d="M2405 2436 c20 -30 25 -32 25 -11 0 8 -9 19 -21 25 -20 11 -20 11 -4
-14z"/>
<path d="M2460 2380 c0 -12 7 -35 16 -52 9 -17 14 -39 11 -49 -3 -11 -3 -19 0
-19 16 0 169 45 178 52 15 13 -7 10 -70 -12 -32 -11 -60 -20 -61 -20 -2 0 -17
27 -34 60 -32 64 -40 72 -40 40z"/>
<path d="M811 2340 c-23 -17 -57 -53 -77 -80 -20 -28 -39 -50 -42 -50 -3 0
-18 11 -32 25 l-27 26 -38 -43 c-21 -24 -122 -130 -223 -236 -216 -225 -242
-254 -242 -267 0 -5 13 -24 28 -42 15 -17 54 -64 88 -105 33 -40 103 -125 156
-189 l96 -116 78 -11 c69 -9 79 -9 91 6 22 29 13 46 -55 105 -37 32 -116 104
-176 161 l-110 103 24 34 c13 19 102 138 197 266 95 127 173 241 173 252 0 31
102 143 143 157 20 6 23 34 4 34 -8 0 -33 -14 -56 -30z"/>
<path d="M950 2345 c-12 -13 -33 -59 -46 -102 l-22 -78 21 -22 c27 -30 31 -29
58 8 16 23 19 33 10 42 -9 9 -15 8 -22 -5 -12 -22 -29 -23 -29 -2 0 26 51 124
71 137 24 15 25 47 1 47 -10 0 -29 -11 -42 -25z"/>
<path d="M2448 2253 c7 -3 16 -2 19 1 4 3 -2 6 -13 5 -11 0 -14 -3 -6 -6z"/>
</g>
</svg>
