<svg xmlns="http://www.w3.org/2000/svg" width="100" height="19" viewBox="0 0 97 19"><path style="stroke:none;fill-rule:nonzero;fill:#1d1d1b;fill-opacity:1" d="M9.855 0C3.97 0 0 4.18 0 9.5S3.969 19 9.855 19c5.887 0 9.856-4.18 9.856-9.5S15.742 0 9.855 0Zm0 18.375c-4.136 0-6.867-2.93-6.867-8.875S5.718.625 9.855.625c4.141 0 6.872 2.93 6.872 8.875s-2.754 8.875-6.872 8.875ZM33.77.797v.453c1.152 0 1.664.258 1.664 1.055 0 .625-.45 1.422-2.454 4.695-1.152 1.77-1.75 3.102-1.94 3.555-.259-.711-.876-2.22-2.282-4.696-.45-.796-.875-1.421-1.238-1.96-.704-1.055-.961-1.594-.961-1.958 0-.539.257-.625 1.152-.71V.796h-2.559C22.59.797 20.926.71 20.926.71v.453c1.75.258 2.816.969 5.719 5.688 1.94 3.187 2.199 4.265 2.28 5.683v.606c0 1.875 0 3.101-.167 3.812-.172.883-.707.883-1.856 1.055v.453c.446 0 1.856-.172 3.157-.172 1.406 0 3.156.172 3.156.172v-.453c-1.047-.086-1.664-.172-1.856-1.055-.172-.71-.172-1.96-.172-3.812v-.711c.086-1.25.536-2.39 2.2-5.063 2.558-4.18 3.691-5.773 5.8-6.117V.71c-.445 0-1.94.087-3.605.087ZM87.145 0c-5.887 0-9.856 4.18-9.856 9.5s3.969 9.5 9.856 9.5C93.03 19 97 14.82 97 9.5S93.031 0 87.145 0Zm0 18.375c-4.141 0-6.872-2.93-6.872-8.875S83.003.625 87.145.625c4.136 0 6.867 2.93 6.867 8.875-.082 5.945-2.813 8.875-6.867 8.875ZM47.742 8.531l-1.941-1.25c-1.578-.968-2.73-1.875-2.73-3.64 0-1.875 1.324-3.016 3.35-3.016 2.9 0 3.52 2.39 3.774 4.094h.344c0-.172.082-.883.082-1.766 0-1.164-.082-1.765-.082-1.765-.172-.176-1.664-.973-3.969-.973-3.433 0-5.27 2.133-5.27 4.61 0 1.874.79 3.726 3.348 5.234l1.942 1.25c1.496.968 2.816 1.96 2.816 3.812 0 2.219-1.492 3.297-3.691 3.297-2.73 0-3.86-1.68-4.563-4.805h-.343c0 .54-.086 1.055-.086 1.961 0 1.055.086 1.961.086 1.961.086.086 1.75 1.422 4.652 1.422 3.691 0 5.8-2.047 5.8-5.062 0-2.262-1.042-3.77-3.519-5.364ZM67.367.711v.453c1.153.086 1.664.172 1.86 1.055.168.71.168 1.96.168 3.812v2.844H59.73v-2.93c0-1.875 0-3.101.172-3.812.172-.883.703-.883 1.856-1.055V.711s-1.75.086-3.156.086c-1.325 0-2.73-.086-3.157-.086v.453c1.153.086 1.664.172 1.856 1.055.168.71.168 1.96.168 3.812v7.11c0 1.875 0 3.101-.168 3.812-.172.883-.703.883-1.856 1.055v.453c.446 0 1.856-.086 3.157-.086 1.406 0 3.156.086 3.156.086v-.453c-1.153-.172-1.75-.258-1.942-1.164-.171-.711-.171-1.957-.171-3.813V9.586h9.664v3.469c0 1.875 0 3.101-.168 3.812-.172.883-.707.883-1.856 1.055v.453c.445 0 1.856-.086 3.156-.086 1.407 0 3.157.086 3.157.086v-.453c-.961-.086-1.493-.172-1.664-1.055-.172-.71-.172-1.96-.172-3.812v-7.11c0-1.875 0-3.101.172-3.812.171-.883.703-.883 1.855-1.055V.711s-1.75.086-3.156.086c-1.43 0-2.836-.086-3.266-.086Zm0 0"/></svg>