<svg xmlns="http://www.w3.org/2000/svg" width="100" height="16" viewBox="0 0 101 16" fill="rgb(8.627451%,7.843137%,7.45098%)" xmlns:v="https://vecta.io/nano"><path d="M46.207031 13.242188c-.632812.125-1.320312.042968-1.867187-.308594-.644532-.390625-1.070313-1.09375-1.152344-1.839844-.011719-.152344-.011719-.304688-.003906-.457031.09375-.859375.738281-1.644531 1.585937-1.84375l3.128907 3.441406c-.425782.515625-1.035157.875-1.691407 1.007813zm4.703125-1.457032c.035156-.472656.070313-.949218.21875-1.398437.179688-.570313.492188-1.160157 1.054688-1.425781.113281-.035157.234375-.058594.351562-.070313 0-.109375-.003906-.21875.023438-.324219-.035156-.148437.011718-.300781-.003906-.453125-.023438-.226562-.019532-.453125-.011719-.679687.015625-.28125-.023438-.570313.015625-.851563-.019532-.070312-.023438-.144531-.023438-.214843-.695312-.007813-1.390625.1875-1.992187.539062-.902344.53125-1.585938 1.4375-1.824219 2.464844l-4.011719-4.398438c-.285156-.320312-.410156-.769531-.355469-1.195312.085938-.457032.375-.882813.796876-1.09375.28125-.152344.613281-.179688.929687-.136719.484375.078125.902344.421875 1.097656.871094l2.257813-1.148438c-.128906-.242187-.265625-.484375-.433594-.699219C48.257812.582031 47.039062-.03125 45.800781 0c-1.429687-.0273438-2.820312.816406-3.492187 2.078125-.425782.773437-.585938 1.695313-.4375 2.570313.128906.8125.519531 1.582031 1.097656 2.167968-.671875.398438-1.246094.960938-1.648438 1.632813-.460937.761719-.691406 1.660156-.664062 2.554687.027344.878906.289062 1.753906.757812 2.496094.703126 1.132812 1.878907 1.957031 3.183594 2.222656.664063.140625 1.351563.132813 2.019532.023438 1.136718-.210938 2.195312-.792969 3-1.625l1.03125 1.140625h3.421874l-3.160156-3.476563m-45.28125-3.59375c-.425781.457032-1.027344.71875-1.644531.789063l-1.332031.007812V2.847656c.523437.015625 1.050781-.042968 1.5625.085938.613281.136718 1.1875.472656 1.585937.964844.984375 1.214843.910157 3.164062-.171875 4.292968zm3.324219-3.609375c-.28125-1.238281-.984375-2.386719-2.003906-3.148437C5.972656.695312 4.746094.335938 3.53125.332031H0v14.929688h2.652344v-3.738281c.636718-.011719 1.277344.039062 1.90625-.058594 1.035156-.144532 2.019531-.617188 2.773437-1.339844 1.011719-.957031 1.625-2.300781 1.753907-3.683594.03125-.621094.019531-1.25-.132813-1.859375"/><path d="M19.554688.332031h2.679687l.011719.25-.003906.496094v.496094.71875l.003906.226562-.003906 1.082031v1.488282 2.304687l.003906.402344c-.011719.167969-.011719.332031 0 .5v.359375l-.03125 1.570312c-.078125.90625-.324219 1.800782-.773438 2.589844-.457031.820313-1.140625 1.507813-1.953125 1.96875-.910156.515625-1.964843.75-3.003906.75-1.160156.015625-2.335937-.261718-3.320313-.890625-.945312-.597656-1.675781-1.515625-2.078124-2.558593-.332032-.84375-.460938-1.757813-.457032-2.664063V.332031h2.699219v9.273438c.027344.867187.210937 1.785156.789063 2.457031.476562.5625 1.199218.863281 1.917968.921875.753906.074219 1.558594-.027344 2.207032-.441406.519531-.328125.878906-.867188 1.066406-1.449219.148437-.417969.199218-.863281.238281-1.304688l.007813-3.253906V.332031m12.835937.003907l2.679687-.003907v12.359375h4.582032v2.570313h-7.261719V.335938m29.566406 10.941406c-.066406.351562-.257812.6875-.542969.90625-.339843.273437-.761718.40625-1.183593.484375-.804688.132812-1.625.0625-2.4375.082031V8.863281l1.820312.007813C60.199219 8.910156 60.8125 9 61.3125 9.335938c.351562.226562.589844.613281.652344 1.027343.046875.304688.042968.613281-.007813.914063zm-4.164062-8.511719c.59375.007813 1.195312-.03125 1.789062.070313.421875.078124.855469.246093 1.144531.585937.269532.324219.359376.761719.347657 1.175781.011719.46875-.144531.964844-.5 1.285156-.375.332032-.886719.460938-1.375.496094l-1.40625.003906V2.765625zm6.523437 6.179687c-.363281-.761718-1.015625-1.367187-1.769531-1.734374.003906-.007813.007813-.03125.007813-.042969.550781-.480469.949218-1.136719 1.101562-1.851563.117188-.519531.089844-1.058594.007812-1.582031-.105468-.511719-.296874-1.007813-.585937-1.441406-.417969-.628907-1.011719-1.136719-1.691406-1.464844C60.84375.574219 60.246094.464844 59.65625.394531l-1.078125-.0625c-1.152344-.003906-2.300781 0-3.453125 0v14.929688L60.195312 15.25c1.203126-.097656 2.398438-.5625 3.265626-1.417969.671874-.640625 1.125-1.515625 1.238281-2.441406.082031-.828125-.015625-1.691406-.382813-2.445313M66.140625.332031h9.144531v2.515625c-2.15625.003906-4.3125-.003906-6.46875.003906v3.527344l6.136719.003906.003906 2.480469c-2.046875 0-4.09375-.003906-6.140625 0v3.882813l6.46875.003906v2.511719h-9.144531V.332031"/><path d="M81.34375 8.851562l1.785156-4.503906 1.78125 4.503906H81.34375zM84.195312.367188c-.015624-.082032-.109374-.0625-.164062-.066407h-1.808594c-.058594.007813-.144531-.015625-.171875.046875l-6.0625 14.914063h2.878907l1.503906-3.882813h5.507812l1.5 3.886719 3.070313-.003906L84.195312.367188m13.40625 5.539062c-.136718.484375-.460937.914062-.894531 1.171875-.628906.378906-1.386719.472656-2.113281.472656h-.839844V2.847656c.761719.003906 1.539063-.042968 2.28125.160156.320313.09375.640625.21875.910156.417969.347657.246094.589844.621094.695313 1.03125.113281.476563.09375.980469-.039063 1.449219zm2.238282 6.917969l-1.773438-3.621094c.429688-.242187.828125-.542969 1.167969-.902344.433594-.441406.742187-.992187.945313-1.574219.421874-1.316406.375-2.828124-.3125-4.042968-.3125-.550782-.761719-1.019532-1.289063-1.367188-.796875-.53125-1.738281-.796875-2.675781-.921875l-.992188-.0625c-1.277344 0-2.554687-.003906-3.835937 0v14.929688h2.679687v-5.015625l.257813-.003906c.21875-.03125.441406-.019532.664062-.046876l.679688-.078124c.09375.25.21875.488281.328125.730468l2.242187 4.414063h3.328125l-1.414062-2.4375M24.046875.332031h2.675781v12.359375h4.578125v2.570313h-7.253906V.332031"/></svg>