<svg xmlns="http://www.w3.org/2000/svg" width="100" height="25" viewBox="0 0 101 25" fill="rgb(0%,0%,0%)" xmlns:v="https://vecta.io/nano"><path d="M1.511719.691406C.859375.734375.285156.804688.242188.847656c-.054688.050782-.0625.164063-.027344.269532.042968.136718.128906.179687.378906.179687.179688 0 .453125.042969.609375.097656.523437.191407.515625.128907.515625 5.859375L1.625 12.714844c-.113281.320312-.363281.46875-1.023438.609375-.480468.101562-.617187.207031-.5429682.414062.0351562.085938.5351562.113281 2.5273442.113281h2.480468v-.207031c0-.191406-.058594-.226562-.488281-.3125-1.152344-.242187-1.167969-.285156-1.210937-3.03125-.042969-2.578125-.078126-2.464843.910156-2.457031 1.089844.007812 1.117187.023438 2.746094 2.675781 1.539062 2.5 2.613281 3.355469 4.363281 3.476563 1.253906.089844 1.710937-.128906.84375-.414063-.234375-.078125-.542969-.199219-.6875-.277343-.359375-.191407-1.554688-1.460938-2.257813-2.421876-.671875-.910156-2.011718-3.03125-2.105468-3.316406-.042969-.15625.027343-.234375.515624-.519531.308594-.183594.789063-.570313 1.066407-.875.652343-.699219.882812-1.289063.890625-2.242187 0-.621094-.035156-.777344-.273438-1.273438-.429687-.871094-1.21875-1.488281-2.328125-1.816406C6.585938.703125 6.148438.667969 4.59375.648438 3.554688.632812 2.164062.65625 1.511719.691406zm4.664062.824219c.667969.300781 1.304688.976563 1.527344 1.617187.207031.625.207031 1.777344-.007813 2.398438-.1875.546875-.703124 1.152344-1.210937 1.421875-.300781.164063-.515625.1875-1.683594.214844l-1.339843.035156-.050782-.207031c-.035156-.105469-.0625-1.371094-.0625-2.804688 0-2.667968.019532-2.789062.34375-2.925781.070313-.027344.542969-.035156 1.039063-.019531.765625.027344.988281.070312 1.445312.269531zm11.214844.953125c-2.59375.570312-4.421875 2.613281-4.671875 5.210938-.316406 3.261718 1.8125 5.910156 5.109375 6.351562 3.652344.484375 6.648437-2.144531 6.648437-5.824219 0-1.082031-.179687-1.90625-.617187-2.839843-.695313-1.472657-2.121094-2.5625-3.78125-2.898438-.789063-.15625-1.980469-.15625-2.6875 0zm1.949219.484375c1.734375.371094 3.007812 1.957031 3.417968 4.25.148438.785156.121094 2.386719-.050781 3.070313-.617187 2.539062-2.757812 3.820312-5.167969 3.101562-1.875-.5625-3.136718-2.8125-3.136718-5.585938 0-2.066406.644531-3.503906 1.941406-4.34375.824219-.535156 1.941406-.71875 2.996094-.492187zm10.117187-.519531c-.945312.1875-1.828125.863281-2.214843 1.703125-.1875.398437-.230469.617187-.230469 1.144531.007812 1.261719.675781 2.15625 2.480469 3.289062 1.847656 1.167969 2.3125 1.757813 2.320312 2.941407 0 1.039062-.429688 1.671875-1.339844 1.949219-1.46875.433593-2.816406-.320313-3.46875-1.949219-.191406-.449219-.398437-.621094-.550781-.457031-.085937.078124.09375 1.394531.257813 1.894531.144531.46875.292968.605469.824218.816406 1.183594.441406 2.789063.421875 3.785156-.0625 1.554688-.734375 2.132813-2.542969 1.359376-4.242187-.320313-.710938-1.109376-1.445313-2.320313-2.164063-1.632813-.976563-2.144531-1.601563-2.144531-2.621094 0-.738281.273437-1.246093.804687-1.550781.472657-.257812 1.375-.335938 1.957031-.171875.550782.144531 1.144532.75 1.375 1.382813.171876.460937.308594.582031.523438.441406.085938-.058594.085938-.214844.019531-.761719-.179687-1.332031-.136719-1.261719-1.066406-1.488281-.832031-.199219-1.675781-.234375-2.371094-.09375zm37.101563.035156c-1.261719.273438-2.273438.863281-3.160156 1.816406-.953126 1.019532-1.433594 2.191406-1.535157 3.679688-.191406 2.777344 1.648438 5.261718 4.398438 5.9375.8125.207031 2.386719.207031 3.132812 0 2.007813-.546875 3.53125-2.085938 4.089844-4.121094.203125-.761719.214844-2.421875.007813-3.203125-.515626-1.964844-1.839844-3.390625-3.710938-3.980469-.78125-.25-2.40625-.3125-3.222656-.128906zm2.105468.519531c1.503907.394531 2.628907 1.695313 3.152344 3.632813.144532.5625.179688.9375.1875 2.035156 0 1.246094-.015625 1.394531-.230468 2.015625-.710938 2.070313-2.34375 3.144531-4.328126 2.859375-2.257812-.328125-3.726562-2.363281-3.863281-5.351562-.128906-2.707032.976563-4.648438 2.96875-5.203126.550781-.144531 1.511719-.144531 2.113281.011719zm0 0"/><path d="M80.042969 2.457031c-2.816407.605469-4.722657 2.96875-4.722657 5.878907 0 1.550781.558594 2.898437 1.667969 4 1.210938 1.210937 2.480469 1.722656 4.300781 1.722656 1.753907 0 3.007813-.503906 4.164063-1.679688 1.152344-1.152344 1.667969-2.484375 1.660156-4.242187-.007812-1.773438-.515625-3.097657-1.617187-4.199219-.652344-.65625-1.296875-1.046875-2.230469-1.339844-.765625-.242187-2.398437-.3125-3.222656-.140625zm1.96875.496094c1.089843.25 2.214843 1.167969 2.722656 2.242187 1.234375 2.578126.996094 5.710938-.558594 7.277344-1.039062 1.039063-2.59375 1.378906-4.070312.867188-1.304688-.449219-2.320313-1.679688-2.816407-3.402344-.257812-.910156-.328124-2.753906-.128906-3.652344.386719-1.714844 1.414063-2.910156 2.882813-3.308594.472656-.128906 1.460937-.144531 1.96875-.023437zm-45.941407-.148437c0 .171874.050782.207031.394532.25.277344.027343.472656.113281.628906.269531l.222656.226562v9.347657l-.222656.226562c-.1875.179688-.335938.230469-.800781.265625-.523438.042969-.574219.070313-.546875.234375.023437.183594.023437.183594 4.199218.207031l4.171876.019531.183593-.40625c.273438-.652343.546875-1.636718.515625-1.863281-.042968-.320312-.363281-.3125-.5.019531-.222656.535157-.765625 1.289063-1.046875 1.445313-.25.136719-.507812.15625-1.917969.15625-1.457031 0-1.664062-.019531-1.972656-.175781-.558594-.277344-.59375-.433594-.628906-2.632813-.035156-1.789062-.023438-1.953125.121094-2.058593.101562-.078126.457031-.113282 1.140625-.113282 1.71875.007813 2.003906.132813 2.15625.953125.105469.535157.171875.640625.394531.570313.15625-.042969.164062-.171875.164062-1.78125 0-1.730469 0-1.730469-.1875-1.730469s-.214843.050781-.421874.890625c-.101563.449219-.292969.5-1.890626.476562l-1.449218-.027343V3.246094h1.71875c2.25 0 2.351562.050781 2.917968 1.429687.09375.222657.207032.285157.351563.1875.070313-.042969.070313-.308593-.015625-.992187l-.164062-1.109375c-.050782-.15625-.164063-.164063-3.789063-.164063h-3.726563zm0 0"/><path d="M45.003906 2.753906c0 .128906.101563.1875.453125.265625.300781.070313.542969.191407.695313.347657.121094.128906.636718 1.125 1.136718 2.226562l1.757813 3.824219 1.382813 3.160156.613281 1.429687c.050781.058594.160156.101563.253906.085938.128906-.019531.300781-.347656.742187-1.457031l1.054688-2.421875.480469-.996094.445312.953125 1.425781 3.402344c.121094.335937.214844.464843.363282.511719.109375.023437.230468.015624.265625-.027344s.464843-1.089844.953125-2.328125l1.65625-4.027344L59.75 5.195312c.695312-1.679687.917969-1.984374 1.613281-2.183593.265625-.070313.429688-.164063.429688-.242188 0-.113281-.273438-.128906-1.699219-.15625-1.589844-.015625-1.699219-.007812-1.675781.128907.019531.113281.15625.183593.457031.246093.601562.121094.667969.179688.617188.550781-.015626.183594-.617188 1.785157-1.332032 3.566407l-1.941406 4.605469c-.066406.019531-.890625-1.738282-1.5-3.210938l-.378906-.898438.367187-.832031c.59375-1.34375 1.445313-2.988281 1.726563-3.332031.214844-.261719.34375-.328125.765625-.417969.410156-.078125.515625-.128906.515625-.257812 0-.15625-.09375-.164063-1.683594-.164063-1.554688 0-1.675781.007813-1.648438.144532.015626.105468.164063.183593.453126.246093.394531.085938.429687.121094.457031.351563.035156.320312-.488281 1.757812-1.003907 2.796875l-.386718.691406c-.019532-.015625-.34375-.761719-.730469-1.660156-.449219-1.023438-.695313-1.707031-.679687-1.851563.027343-.207031.078124-.242187.5-.328125.324218-.0625.472656-.132812.472656-.21875 0-.113281-.285156-.128906-1.917969-.15625-1.792969-.015625-1.914063-.007812-1.886719.128907.015625.105468.160156.191406.417969.253906.214844.058594.472656.144531.578125.199218.273438.144532 2.507812 4.75 2.507812 5.167969 0 .179688-1.460937 3.410157-1.546874 3.410157-.070313 0-2.851563-6.027344-3.316407-7.195313-.550781-1.375-.539062-1.453125.179688-1.609375.214843-.042969.34375-.121094.34375-.199219 0-.113281-.28125-.128906-1.90625-.15625-1.820313-.015625-1.914063-.007812-1.914063.140625zm44.230469-.078125c-.359375.050781-.402344.085938-.351563.34375 0 .042969.152344.105469.332032.132813.929687.171875.878906-.148438.878906 5.0625l-.085938 4.632812c-.113281.300782-.421874.484375-.9375.542969-.421874.054687-.507812.128906-.367187.347656.042969.078125.898437.101563 3.191406.128907l3.824219-.136719c1.261719-.285157 2.050781-.71875 2.917969-1.601563 1.066406-1.082031 1.503906-2.128906 1.566406-3.75.074219-1.824218-.3125-2.933594-1.425781-4.050781-.914063-.910156-2.019532-1.417969-3.574219-1.636719-.679687-.09375-5.28125-.113281-5.96875-.015625zm6.011719.65625c1.683594.527344 2.78125 1.6875 3.238281 3.421875.207031.777344.179687 2.316406-.050781 3.210938-.558594 2.179687-1.917969 3.28125-4.21875 3.425781-1.492188.085937-2.335938-.285156-2.585938-1.167969-.09375-.320312-.117187-1.316406-.117187-4.527344 0-4.5-.019531-4.328124.503906-4.492187.421875-.128906 2.679687-.042969 3.230469.128906zM3.863281 18.257812c0 .042969.105469.101563.234375.136719.460938.113281.453125.070313.453125 2.632813l-.078125 2.507812c-.042968.070313-.1875.175782-.324218.234375-.207032.097657-.113282.105469.816406.113281.6875.007813 1.039062-.027343 1.003906-.078124-.027344-.050782-.144531-.085938-.257812-.085938-.394532 0-.480469-.285156-.453126-1.523438l.023438-1.117187h3.265625v1.125c-.011719 1.167969-.085937 1.515625-.371094 1.515625-.078125 0-.207031.042969-.273437.085938-.085938.0625.214844.085937.925781.085937.6875 0 1.039063-.035156 1.003906-.085937-.023437-.050782-.136719-.085938-.246093-.085938-.386719 0-.394532-.070312-.394532-2.648438 0-2.613281-.011718-2.5625.445313-2.675781.472656-.121093.121093-.214843-.800781-.214843-.933594 0-1.15625.078124-.675782.242187.324219.121094.386719.34375.386719 1.445313v.863281l-1.648437.027343-1.660157.019532v-.996094c0-1.101562.050781-1.289062.386719-1.378906.121094-.035156.214844-.09375.214844-.136719 0-.050781-.394532-.085937-.988282-.085937-.539062 0-.988281.035156-.988281.078124zm51.660157-.019531l-.773438.035157.351562.164062.363282.15625.058594.933594c.035156.519531.042968 1.570312.027343 2.347656-.050781 1.496094-.136719 1.84375-.5 1.84375-.085937 0-.1875.035156-.214843.085938s.320312.085937.996093.085937c.636719 0 1.023438-.035156.980469-.078125-.050781-.042969-.164062-.09375-.257812-.109375-.292969-.054687-.386719-.398437-.386719-1.4375v-.96875h.351562c.4375 0 .695313.25 1.246094 1.21875.617187 1.074219 1.160156 1.464844 2.078125 1.464844.199219 0 .359375-.046875.359375-.089844 0-.050781-.09375-.085937-.214844-.085937-.339843 0-.984375-.675782-1.679687-1.746094-.484375-.753906-.59375-.972656-.5-1.03125.070312-.042969.164062-.078125.214844-.078125.113281 0 .585937-.503907.710937-.753907.164063-.320312.113281-.925781-.09375-1.238281-.417969-.621093-1.199219-.804687-3.117187-.71875zm1.984374.382813c.402344.242187.574219.683594.53125 1.339844-.023437.433593-.074218.597656-.238281.769531-.257812.277343-.695312.417969-1.203125.375l-.386718-.027344-.027344-1.316406-.023438-1.316407.238282-.03125c.371093-.054687.816406.023438 1.109374.207032zm0 0"/><path d="M19.253906 19.234375c-.09375.292969-.160156.554687-.144531.570313s.179687-.121094.359375-.308594c.292969-.304688.386719-.347656.859375-.410156.945313-.101563.886719-.257813.886719 2.121093l-.085938 2.285157c-.054687.148437-.148437.226562-.277344.226562-.109374 0-.257812.042969-.324218.085938-.085938.0625.222656.078124.945312.078124.96875 0 1.039063-.015624.726563-.113281l-.339844-.101562-.027344-2.320313-.015625-2.328125.582032.050781c.746093.0625 1.023437.191407 1.089843.503907.070313.292969.214844.335937.214844.050781 0-.105469.027344-.328125.050781-.492188l.054688-.304687-2.078125.027344c-1.394531.015625-2.113281-.011719-2.191407-.070313-.085937-.070312-.144531.027344-.285156.449219zm66.949219-.015625l-.148437.5625c0 .023438.148437-.105469.328124-.296875.292969-.300781.367188-.34375.902344-.398437.410156-.042969.609375-.03125.703125.046874.113281.085938.128907.429688.121094 2.109376l-.070313 2.21875c-.042968.144531-.136718.222656-.332031.265624-.570312.113282-.371093.164063.632813.15625.929687 0 .996094-.015624.722656-.113281l-.300781-.109375v-4.574218l.53125.011718c.695312.007813 1.046875.164063 1.117187.476563.070313.34375.164063.308593.230469-.078125.0625-.375.0625-.894532-.007813-.738282-.050781.148438-4.0625.164063-4.199218.027344-.058594-.0625-.136719.070313-.230469.433594zm0 0"/><path d="M14.171875 18.898438c-.859375.1875-1.582031.820312-1.839844 1.601562-.1875.550781-.171875 1.523438.027344 1.972656.238281.535156.730469 1.03125 1.234375 1.253906.570312.253907 1.71875.277344 2.234375.054688.558594-.246094.980469-.652344 1.238281-1.171875.203125-.421875.238282-.597656.238282-1.226563s-.035157-.804687-.238282-1.230468c-.136718-.277344-.386718-.613282-.558594-.761719-.566406-.46875-1.53125-.675781-2.335937-.492187zm1.417969.34375c.71875.398437 1.132812 1.4375 1.046875 2.625-.070313.984374-.515625 1.644531-1.246094 1.851562-1.417969.398438-2.507813-.648438-2.523437-2.421875 0-.824219.136718-1.292969.503906-1.734375.515625-.605469 1.445312-.742188 2.21875-.320312zm22.980468-.371094c-1.023437.25-1.363281 1.445312-.617187 2.164062.171875.164063.589844.492188.925781.71875.679688.46875.851563.746094.773438 1.246094-.164063 1.011719-1.460938 1.066406-2.0625.09375-.144532-.222656-.273438-.414062-.300782-.414062-.058593 0 .078126.804687.164063.960937.078125.15625.6875.339844 1.132813.339844.945312 0 1.617187-.703125 1.496093-1.570313-.070312-.542968-.367187-.917968-1.175781-1.460937s-1.003906-.832031-.902344-1.28125c.101563-.492188.625-.769531 1.160156-.625.308594.089843.488282.242187.738282.660156.058594.09375.128906.136719.152344.113281.0625-.0625-.015626-.695312-.109376-.832031-.070312-.128906-1.023437-.199219-1.375-.113281zm30.421876-.007813c-.714844.179688-1.015626.640625-.980469 1.496094.007812.3125.402343.746094 1.109375 1.246094.761718.539062.960937.78125.960937 1.179687 0 .421875-.136719.699219-.429687.875-.585938.351563-1.3125.03125-1.753906-.765625l-.144532-.257812.035156.503906c.015626.308594.078126.535156.152344.585937.457032.296876 1.496094.304688 1.996094.019532.382812-.234375.660156-.675782.660156-1.074219 0-.675781-.285156-1.074219-1.203125-1.679687-.738281-.484376-.960937-.734376-.96875-1.109376-.019531-.585937.523438-.996093 1.148438-.863281.242187.042969.765625.542969.765625.71875 0 .050781.042968.085938.09375.085938.113281 0 .042968-.769531-.078125-.875-.101563-.09375-1.074219-.15625-1.363281-.085938zm6.003906.007813c-2.390625.503906-2.835938 3.78125-.65625 4.847656.335937.164062.570312.207031 1.152344.207031 1.109374.007813 1.785156-.355469 2.300781-1.246093.207031-.355469.234375-.476563.234375-1.253907 0-.753906-.027344-.917969-.214844-1.289062-.480469-.953125-1.691406-1.5-2.816406-1.265625zm.847656.183594c.988281.214843 1.554688 1.132812 1.554688 2.515624 0 1.171876-.386719 1.855469-1.210938 2.132813-.953125.328125-1.878906-.132813-2.34375-1.152344-.15625-.355469-.199219-.589843-.199219-1.300781 0-.734375.027344-.925781.207031-1.28125.265626-.542969.789063-.898438 1.484376-1.003906.035156-.007813.257812.035156.507812.089844zm0 0"/><path d="M94.050781 18.871094c-.976562.242187-1.339843 1.367187-.6875 2.121094.148438.164062.507813.449218.816407.648437.824218.527344 1.082031 1.109375.773437 1.722656-.386719.753907-1.675781.46875-2.019531-.449219-.144532-.382812-.289063-.292968-.222656.128907.085937.539062.242187.726562.679687.839843 1.3125.328126 2.320313-.355468 2.171875-1.472656-.066406-.542968-.367188-.925781-1.125-1.417968-.859375-.554688-.953125-.667969-.953125-1.132813 0-.539063.328125-.867187.851563-.839844.488281.015625.679687.121094.925781.519531.191406.308594.199219.320313.222656.121094.019531-.113281.011719-.339844-.023437-.496094-.042969-.25-.085938-.292968-.285157-.292968-.128906 0-.367187-.015625-.53125-.042969-.164062-.015625-.429687 0-.59375.042969zm-68.199219.0625c0 .042968.121094.136718.257813.214844l.257813.148437-.019532 2.136719c-.023437 2.300781.011719 2.148437-.496094 2.355468-.15625.066407.28125.09375 1.65625.09375l1.875.007813.109376-.285156c.171874-.414063.242187-.753907.15625-.753907-.042969 0-.179688.15625-.308594.347657-.269532.40625-.6875.554687-1.488282.503906s-.839843-.121094-.839843-1.308594v-.96875l.429687-.027343c.730469-.050782.960938.035156 1.070313.371093.054687.167969.128906.304688.15625.304688.078125 0 .078125-1.445313 0-1.515625-.027344-.035156-.09375.085937-.15625.25-.109375.347656-.332031.433594-1.070313.382812l-.429687-.027344-.027344-.917968c-.023437-1.183594.019531-1.246094.867187-1.160156.808594.078124.972657.15625 1.167969.539062.191407.355469.214844.277344.128907-.355469l-.058594-.398437h-1.617188l-1.621094.0625zm0 0"/><path d="M31.605469 18.949219c0 .042969.113281.09375.25.121093.222656.050782.265625.105469.351562.546876.066407.300781.09375 1.082031.066407 2.101562-.023438 1.664062-.09375 2-.394532 2-.074218 0-.203125.042969-.273437.085938-.085938.050781.480469.085937 1.683593.085937h1.820313l.09375-.378906c.148437-.597657.121094-.753907-.066406-.441407-.328125.535157-.472657.605469-1.316407.605469-.667968 0-.789062-.027343-.890624-.171875s-.121094-.546875-.105469-2.253906l.027343-2.074219.28125-.089843c.5-.144532.292969-.214844-.625-.214844-.5 0-.902343.035156-.902343.078125zm30.316406.007812c0 .042969.0625.085938.128906.085938s.207031.078125.300781.175781c.164063.164062.171876.285156.171876 2.152344l-.050782 2.121094c-.027344.078124-.214844.183593-.414062.242187-.308594.105469-.136719.113281 1.53125.140625l1.921875-.019531c.070312-.074219.257812-1.003907.207031-1.003907-.035156.011719-.136719.132813-.230469.289063-.277343.441406-.664062.59375-1.425781.5625-.929688-.035156-.9375-.054687-.9375-1.292969v-1.027344h.5c.703125 0 .867188.058594.941406.371094.035156.148438.113282.277344.171875.304688.128907.042968.148438-1.421875.027344-1.5-.042969-.023438-.09375.0625-.113281.191406-.03125.320312-.324219.457031-.984375.457031H63.125v-2.058593l.222656-.050782c.25-.070312 1.082032.015625 1.390625.128906.113281.042969.257813.214844.328125.378907.171875.425781.265625.320312.207032-.230469l-.042969-.460938-1.648438-.027343c-1.09375-.007813-1.660156.011719-1.660156.070312zm0 0"/><path d="M80.644531 18.941406c-.410156.050782-.4375.066406-.238281.128906.144531.035157.257812.136719.28125.257813.027344.105469.035156 1.109375.027344 2.226563l-.027344 2.035156-.300781.144531-.300781.15625h.945312c.886719-.007813.929688-.015625.671875-.128906-.328125-.136719-.386719-.378907-.351563-1.382813l.023438-.695312.292969-.023438c.351562-.035156.59375.171875 1.011719.890625.59375.996094 1.160156 1.417969 1.898437 1.429688.421875 0 .480469-.132813.085937-.210938-.164062-.035156-.421874-.207031-.636718-.441406-.417969-.441406-1.234375-1.625-1.234375-1.789063.007812-.0625.128906-.191406.28125-.289062.929687-.585938.851562-1.667969-.160157-2.128906-.394531-.179688-1.511718-.265625-2.269531-.179688zm1.890625.320313c.464844.242187.644532 1.027343.386719 1.652343-.136719.335938-.53125.554688-1.023437.554688-.566407 0-.566407.007812-.566407-1.179688 0-.914062.019531-1.070312.15625-1.15625.171875-.105468.710938-.046874 1.046875.128907zm-36.027344-.054688c-.679687.3125-.792968 1.09375-.226562 1.601563.171875.167968.171875.167968-.253906.554687-.535156.476563-.679688.761719-.679688 1.289063 0 .546875.238282.945312.710938 1.152344.652344.304687 1.304687.15625 1.96875-.414063l.300781-.269531.257813.371094c.265624.382812.496093.488281 1.074218.488281.265625 0 .703125-.167969.96875-.375.242188-.191407.121094-.257813-.179687-.101563-.523438.277344-1.015625.109375-1.511719-.503906l-.308594-.371094.632813-.953125c.671875-.996093.902343-1.246093 1.160156-1.246093.085937 0 .179687-.042969.207031-.085938.035156-.054688-.242187-.085938-.765625-.085938-.488281 0-.824219.03125-.824219.085938 0 .042969.078126.085938.171876.085938.386718 0 .265624.484374-.378907 1.550781-.28125.464843-.289062.464843-.394531.257812-.058594-.113281-.359375-.46875-.667969-.789062l-.558593-.578125.316406-.355469c.394531-.441406.414062-.777344.0625-1.132813-.140625-.140624-.308594-.25-.378906-.25-.078126 0-.179688-.019531-.25-.046874-.058594-.015626-.265626.035156-.453126.121093zm.675782.191407c.300781.242187.308594.746093.019531 1.082031-.199219.242187-.207031.242187-.4375.085937-.472656-.308594-.558594-1.019531-.15625-1.253906.222656-.128906.316406-.113281.574219.085938zm.5 2.710937c.507812.640625.558594.785156.359375 1.011719-.214844.25-.78125.511718-1.117188.511718-.144531 0-.394531-.085937-.558593-.199218-.710938-.484375-.703126-1.507813.027343-2.078125l.273438-.226563.335937.269532c.191406.15625.488282.46875.679688.710937zm0 0"/></svg>